<svg width="19" height="19" viewBox="0 0 19 19" fill="none" xmlns="http://www.w3.org/2000/svg">
<path d="M1.97501 19V16H5.07501L2.52501 7.64999C2.07501 7.39999 1.70417 7.03333 1.41251 6.54999C1.12084 6.06666 0.975006 5.54999 0.975006 4.99999C0.975006 4.16666 1.26667 3.45833 1.85001 2.87499C2.43334 2.29166 3.14167 1.99999 3.97501 1.99999C4.62501 1.99999 5.20417 2.18749 5.71251 2.56249C6.22084 2.93749 6.57501 3.41666 6.77501 3.99999H9.97501V2.99999C9.97501 2.71666 10.0708 2.47916 10.2625 2.28749C10.4542 2.09583 10.6917 1.99999 10.975 1.99999C11.125 1.99999 11.2708 2.03333 11.4125 2.09999C11.5542 2.16666 11.675 2.26666 11.775 2.39999L13.475 0.799992C13.625 0.649992 13.8042 0.554159 14.0125 0.512492C14.2208 0.470826 14.425 0.499992 14.625 0.599992L18.525 2.39999C18.725 2.49999 18.8625 2.64583 18.9375 2.83749C19.0125 3.02916 19.0083 3.21666 18.925 3.39999C18.825 3.59999 18.6792 3.72916 18.4875 3.78749C18.2958 3.84583 18.1083 3.83333 17.925 3.74999L14.325 2.09999L11.975 4.29999V5.69999L14.325 7.84999L17.925 6.19999C18.1083 6.11666 18.3 6.10833 18.5 6.17499C18.7 6.24166 18.8417 6.36666 18.925 6.54999C19.025 6.74999 19.0333 6.94166 18.95 7.12499C18.8667 7.30833 18.725 7.44999 18.525 7.54999L14.625 9.39999C14.425 9.49999 14.2208 9.52916 14.0125 9.48749C13.8042 9.44583 13.625 9.34999 13.475 9.19999L11.775 7.59999C11.675 7.69999 11.5542 7.79166 11.4125 7.87499C11.2708 7.95833 11.125 7.99999 10.975 7.99999C10.6917 7.99999 10.4542 7.90416 10.2625 7.71249C10.0708 7.52083 9.97501 7.28333 9.97501 6.99999V5.99999H6.77501C6.72501 6.13333 6.67084 6.25833 6.61251 6.37499C6.55417 6.49166 6.47501 6.61666 6.37501 6.74999L11.375 16H14.975V19H1.97501ZM3.97501 5.99999C4.25834 5.99999 4.49584 5.90416 4.68751 5.71249C4.87917 5.52083 4.97501 5.28333 4.97501 4.99999C4.97501 4.71666 4.87917 4.47916 4.68751 4.28749C4.49584 4.09583 4.25834 3.99999 3.97501 3.99999C3.69167 3.99999 3.45417 4.09583 3.26251 4.28749C3.07084 4.47916 2.97501 4.71666 2.97501 4.99999C2.97501 5.28333 3.07084 5.52083 3.26251 5.71249C3.45417 5.90416 3.69167 5.99999 3.97501 5.99999ZM7.12501 16H9.07501L4.77501 7.99999H4.67501L7.12501 16Z" fill="#004F8C"/>
</svg>
