<svg width="18" height="20" viewBox="0 0 18 20" fill="none" xmlns="http://www.w3.org/2000/svg">
<path d="M1.625 20C1.34166 20 1.09583 19.8958 0.887497 19.6875C0.679164 19.4792 0.574997 19.2333 0.574997 18.95V16.325C0.574997 14.825 1.04166 13.5 1.975 12.35C2.90833 11.2 4.10833 10.4667 5.575 10.15C4.90833 10.6167 4.39166 11.2042 4.025 11.9125C3.65833 12.6208 3.475 13.3833 3.475 14.2V18.95C3.475 19.1333 3.5 19.3167 3.55 19.5C3.6 19.6833 3.68333 19.85 3.8 20H1.625ZM5.3 20C5.01666 20 4.77083 19.8958 4.5625 19.6875C4.35416 19.4792 4.25 19.2333 4.25 18.95V14.2C4.25 13.0333 4.6625 12.0417 5.4875 11.225C6.3125 10.4083 7.30833 10 8.475 10H13.2C14.3667 10 15.3583 10.4083 16.175 11.225C16.9917 12.0417 17.4 13.0333 17.4 14.2V15.8C17.4 16.9667 16.9917 17.9583 16.175 18.775C15.3583 19.5917 14.3667 20 13.2 20H5.3ZM9 7.9C7.9 7.9 6.96666 7.51667 6.2 6.75C5.43333 5.98333 5.05 5.05 5.05 3.95C5.05 2.85 5.43333 1.91667 6.2 1.15C6.96666 0.383333 7.9 0 9 0C10.1 0 11.0333 0.383333 11.8 1.15C12.5667 1.91667 12.95 2.85 12.95 3.95C12.95 5.05 12.5667 5.98333 11.8 6.75C11.0333 7.51667 10.1 7.9 9 7.9Z" fill="#004F8C"/>
</svg>
