<svg xmlns="http://www.w3.org/2000/svg" width="143.85333" height="37.80267" viewBox="0 0 38.061195 10.001957"><defs><clipPath id="c" clipPathUnits="userSpaceOnUse"><path d="M0 0h609.449v793.701H0Z"/></clipPath><clipPath id="b" clipPathUnits="userSpaceOnUse"><path d="M0 0h609.449v793.701H0Z"/></clipPath><linearGradient id="a" x1="0" x2="1" y1="0" y2="0" gradientTransform="matrix(0 29.3276 29.3276 0 465.835 34.639)" gradientUnits="userSpaceOnUse" spreadMethod="pad"><stop offset="0" style="stop-opacity:1;stop-color:#004ea2"/><stop offset="1" style="stop-opacity:1;stop-color:#00a1e9"/></linearGradient></defs><path d="M488.772 63.779v-9.882c-2.09 1.377-4.298 2.141-6.821 2.141-2.525 0-4.733-.764-6.825-2.141v9.882h-8.25V36.177h8.25v8.451c1.487 2.223 3.969 3.602 6.825 3.602 2.854 0 5.335-1.379 6.821-3.602v-8.451h8.251v27.602z" style="fill:url(#a);stroke:none" transform="matrix(.35278 0 0 -.35278 -164.571 22.632)"/><path d="M0 0v8.433h-2.405V-2.125h7.862V0Z" style="fill:#003c83;fill-opacity:1;fill-rule:nonzero;stroke:none" transform="matrix(.35278 0 0 -.35278 29.146 8.883)"/><path d="M0 0h6.281v2.188h-8.685V-8.369h8.685v2.187H0v2.1h5.455v1.984H0v.015z" style="fill:#003c83;fill-opacity:1;fill-rule:nonzero;stroke:none" transform="matrix(.35278 0 0 -.35278 21.59 6.68)"/><path d="M0 0h6.284v2.188h-8.687V-8.369h8.687v2.187H0v2.1h5.456v1.984H0v.015z" style="fill:#003c83;fill-opacity:1;fill-rule:nonzero;stroke:none" transform="matrix(.35278 0 0 -.35278 25.367 6.68)"/><g clip-path="url(#b)" transform="matrix(.35278 0 0 -.35278 -164.571 22.632)"><path d="M0 0h-4.539c-.392 0-.586.199-.586.598v.92c0 .313.194.47.586.47h6.354v2.188h-6.927c-1.543 0-2.315-.747-2.315-2.24V-.026c0-1.442.737-2.162 2.212-2.162H-.7c.391 0 .587-.201.587-.599v-.934c0-.315-.196-.473-.587-.473h-6.634v-2.187h7.221c1.55 0 2.327.751 2.327 2.252v1.966C2.214-.721 1.477 0 0 0" style="fill:#003c83;fill-opacity:1;fill-rule:nonzero;stroke:none" transform="translate(510.12 43.231)"/></g><path d="M0 0v-2.188h3.573v-8.37h2.405v8.37h3.573V0Z" style="fill:#003c83;fill-opacity:1;fill-rule:nonzero;stroke:none" transform="matrix(.35278 0 0 -.35278 16.701 5.908)"/><path d="M0 0h-4.928v4.125h-2.314V-6.432h2.314v4.371H0v-4.371h2.313V4.125H0Z" style="fill:#003c83;fill-opacity:1;fill-rule:nonzero;stroke:none" transform="matrix(.35278 0 0 -.35278 15.322 2.087)"/><g clip-path="url(#c)" transform="matrix(.35278 0 0 -.35278 -164.571 22.632)"><path d="M0 0c-.486-.498-.506-1.221-.518-1.644v-8.31H1.79v3.367h4.913v-3.367h2.318V.603h-7.21C1.125.597.483.5 0 0m2.383-1.46h4.32v-3.067H1.79v2.464c.013.122-.015.34.093.469.108.139.28.129.5.134" style="fill:#003c83;fill-opacity:1;fill-rule:nonzero;stroke:none" transform="translate(560.208 61.76)"/><path d="M0 0h-7.227v-10.557h2.314v8.494h4.339c.217-.005.393.005.505-.133.105-.13.079-.347.088-.469v-7.892h2.313v8.311c-.014.422-.033 1.146-.519 1.643C1.333-.103.691-.005 0 0" style="fill:#003c83;fill-opacity:1;fill-rule:nonzero;stroke:none" transform="translate(543.831 62.362)"/><path d="M0 0c-.01-.124.012-.342-.093-.473-.107-.14-.284-.126-.5-.129h-4.34v8.491h-2.314V-2.667h7.226c.693.003 1.331.103 1.81.6.493.498.509 1.222.524 1.645v8.311H0Z" style="fill:#003c83;fill-opacity:1;fill-rule:nonzero;stroke:none" transform="translate(532.244 54.473)"/><path d="M0 0c-.011.422-.029 1.146-.513 1.644-.485.499-1.127.597-1.808.602h-7.232V-8.311h7.232c.681.004 1.323.103 1.808.601.484.498.502 1.222.513 1.645zm-2.303-5.643c-.012-.124.01-.342-.09-.473-.108-.14-.284-.126-.499-.129h-4.346V.184h4.346c.215-.006.391.004.499-.134.1-.13.078-.347.09-.469z" style="fill:#003c83;fill-opacity:1;fill-rule:nonzero;stroke:none" transform="translate(557.768 60.116)"/></g><path d="m0 0-2.808 4.617h-2.751l4.326-6.656v-3.9h2.471v3.9l4.316 6.656H2.805Z" style="fill:#003c83;fill-opacity:1;fill-rule:nonzero;stroke:none" transform="matrix(.35278 0 0 -.35278 18.388 2.261)"/><path d="M151.833 215.469h.869v-3.725h-.869z" style="fill:#003c83;fill-opacity:1;fill-rule:nonzero;stroke:none;stroke-width:.35277778" transform="translate(-114.773 -211.112)"/></svg>